Coordinates
version=1
nRows=17
nColumns=24
inDegrees=yes

Units are S.I. units (second, meters, Newtons, ...)
Angles are in degrees.

endheader
time	pelvis_tilt	pelvis_list	pelvis_rotation	pelvis_tx	pelvis_ty	pelvis_tz	hip_flexion_r	hip_adduction_r	hip_rotation_r	knee_angle_r	ankle_angle_r	subtalar_angle_r	mtp_angle_r	hip_flexion_l	hip_adduction_l	hip_rotation_l	knee_angle_l	ankle_angle_l	subtalar_angle_l	mtp_angle_l	lumbar_extension	lumbar_bending	lumbar_rotation
      0.90883333	     -4.01615465	      0.58358212	     -2.61497970	     -0.16929436	      0.90056826	      0.34687221	    -11.04821599	      4.19269221	      2.40560645	     -7.74791798	     15.50561384	      3.93431923	      4.87233250	     30.32786725	      1.41392652	     -4.44256338	    -14.25686059	     -1.65223246	     -9.50365169	     -1.29985564	     -7.41525896	     -0.84651112	      7.37837414
      0.91300000	     -4.10272903	      0.58201627	     -2.72581476	     -0.16339125	      0.89920977	      0.34683171	    -11.05282145	      4.13325505	      2.29877726	     -8.40877148	     15.82798580	      4.40597947	      5.14682546	     30.33317769	      1.44161977	     -4.41850929	    -14.02206077	     -1.56894105	     -9.47538521	     -1.40092494	     -7.24377950	     -0.87450072	      7.54949356
      0.91716667	     -4.21698627	      0.57823499	     -2.85357308	     -0.15747358	      0.89788574	      0.34686173	    -11.02289012	      4.08395796	      2.32487053	     -9.07499686	     16.06266977	      4.66836328	      5.31031833	     30.35747931	      1.45053086	     -4.43436364	    -13.86506719	     -1.56883355	     -9.48763451	     -1.44030805	     -7.03416233	     -0.91145996	      7.59741580
      0.92133333	     -4.30712600	      0.59042522	     -2.95149518	     -0.15153548	      0.89664031	      0.34683165	    -10.98118208	      4.01515118	      2.24877033	     -9.82081772	     16.29494750	      5.01131100	      5.53436211	     30.35383037	      1.49599735	     -4.41309582	    -13.79965437	     -1.56439912	     -9.57523706	     -1.47022767	     -6.86798986	     -0.98626168	      7.65927536
      0.92550000	     -4.41547739	      0.61215267	     -3.05341497	     -0.14559064	      0.89543987	      0.34682390	    -10.89646897	      3.93878049	      2.23584035	    -10.61273614	     16.49762491	      5.31107613	      5.74115089	     30.36107052	      1.54762625	     -4.38500125	    -13.80797452	     -1.60617734	     -9.69608489	     -1.48034416	     -6.68550466	     -1.08710874	      7.68131567
      0.92966667	     -4.51464657	      0.64596128	     -3.13940677	     -0.13962310	      0.89431298	      0.34676841	    -10.78109684	      3.84449411	      2.14464279	    -11.48261726	     16.65062429	      5.65697247	      5.98011841	     30.35451820	      1.62221494	     -4.35780572	    -13.89242015	     -1.67184738	     -9.88100014	     -1.47511081	     -6.50277598	     -1.18172227	      7.69687259
      0.93383333	     -4.62060516	      0.68933818	     -3.21544732	     -0.13363199	      0.89324183	      0.34669148	    -10.62796078	      3.73877903	      2.03907612	    -12.41350524	     16.76686925	      6.00260848	      6.24333906	     30.35741729	      1.71044415	     -4.33591720	    -14.05927735	     -1.77462027	    -10.12006381	     -1.45527789	     -6.30974713	     -1.29727833	      7.68874631
      0.93800000	     -4.69549761	      0.75669827	     -3.26190652	     -0.12757676	      0.89230661	      0.34653940	    -10.49102630	      3.59773352	      1.85169062	    -13.35983932	     16.66624845	      6.33322457	     10.17567758	     30.29544158	      1.85047441	     -4.25157849	    -14.22679697	     -1.98324909	    -10.56162054	     -0.95046793	     -6.13747192	     -1.42708763	      7.66038873
      0.94216667	     -4.80026084	      0.79951488	     -3.32460602	     -0.12159107	      0.89136619	      0.34644540	    -10.26128662	      3.49001947	      1.74611372	    -14.44033600	     16.71769764	      6.66978031	     10.24620605	     30.31824619	      1.93426460	     -4.27183302	    -14.57291485	     -2.06032576	    -10.72431958	     -0.92930995	     -5.95463156	     -1.54695341	      7.61083415
      0.94633333	     -4.90275513	      0.86635244	     -3.36846335	     -0.11556746	      0.89051727	      0.34629752	     -9.99346937	      3.34658756	      1.56747670	    -15.59115453	     16.67313112	      7.08189765	     10.37738353	     30.31513313	      2.05983247	     -4.24358457	    -14.91960983	     -2.21749842	    -11.05375250	     -0.89237500	     -5.75975323	     -1.68853759	      7.54506983
      0.95050000	     -4.95178874	      0.94213339	     -3.37579238	     -0.10952273	      0.88981983	      0.34604993	     -9.75115888	      3.18001082	      1.29660234	    -16.79779091	     16.56997752	      7.57847991	     10.71218831	     30.24701784	      2.22480141	     -4.15549594	    -15.29288103	     -2.41980128	    -11.48971819	     -0.79878403	     -5.63512934	     -1.82554556	      7.47879913
      0.95466667	     -5.04180734	      1.02101461	     -3.39110418	     -0.10350066	      0.88913255	      0.34583725	     -9.41555580	      3.01275215	      1.08263071	    -18.09002745	     16.39082725	      7.99643320	     11.12567823	     30.24323926	      2.37507622	     -4.11645504	    -15.74834317	     -2.57818824	    -11.87041454	     -0.68655030	     -5.46217398	     -1.98348796	      7.36763759
      0.95883333	     -5.13914558	      1.11154807	     -3.42989876	     -0.09747226	      0.88853618	      0.34568298	     -9.02939715	      2.83331560	      0.94983412	    -19.44728022	     16.09662942	      8.30896852	     11.38429808	     30.23845771	      2.51587267	     -4.11686951	    -16.22750438	     -2.67313599	    -12.15503046	     -0.61946178	     -5.26868488	     -2.17878660	      7.22221876
      0.96300000	     -5.17724498	      1.19633254	     -3.40269136	     -0.09144135	      0.88808737	      0.34535494	     -8.66880332	      2.63705421	      0.64549656	    -20.85477858	     15.63889865	      8.68748837	     16.34176159	     30.16811776	      2.70344380	     -3.99405786	    -16.71581368	     -2.83385883	    -12.66572497	      0.62272154	     -5.15472402	     -2.31830345	      7.09810826
      0.96716667	     -5.23656625	      1.29704529	     -3.41131943	     -0.08544276	      0.88767976	      0.34511139	     -8.21885936	      2.41906712	      0.41511358	    -22.38330649	     15.23272055	      9.12457880	     16.42130550	     30.14579955	      2.86022708	     -4.03050818	    -17.28569428	     -2.87404533	    -12.86177344	      0.64916295	     -5.01403532	     -2.49880878	      6.92629727
      0.97133333	     -5.27907308	      1.39851544	     -3.39072972	     -0.07946184	      0.88736825	      0.34479506	     -7.74486779	      2.18997989	      0.14771181	    -23.97210696	     14.73845737	      9.57535736	     16.58540655	     30.10406465	      3.04111353	     -3.98511088	    -17.86959665	     -2.88846829	    -13.15594648	      0.68759259	     -4.90527436	     -2.67783933	      6.75441597
      0.97550000	     -5.30997343	      1.50988137	     -3.36508996	     -0.07349745	      0.88714257	      0.34446514	     -7.23360100	      1.93765650	     -0.13348696	    -25.63172239	     14.15089963	     10.02326052	     16.81868154	     30.04750612	      3.23089239	     -3.94603851	    -18.46088688	     -2.85400913	    -13.42642282	      0.73449128	     -4.80486194	     -2.87186211	      6.56641287
